<svg xmlns="http://www.w3.org/2000/svg" width="640" height="180" viewBox="0 0 640 180" role="img" aria-labelledby="title desc">
  <title id="title">canvasjob horizontal logo</title>
  <desc id="desc">The canvasjob checklist mark next to the canvasjob wordmark.</desc>
  <g transform="translate(28 24)">
    <rect x="0" y="0" width="132" height="132" rx="24" fill="#0f172a"/>
    <circle cx="42" cy="42" r="12" fill="#10b981"/>
    <path d="m36.8 41.4 4.8 5.2 11-12.8" fill="none" stroke="#ffffff" stroke-width="4.6" stroke-linecap="round" stroke-linejoin="round"/>
    <circle cx="42" cy="66" r="12" fill="#ef4444"/>
    <path d="m35.6 59.6 12.8 12.8m0-12.8L35.6 72.4" stroke="#ffffff" stroke-width="4.6" stroke-linecap="round"/>
    <circle cx="42" cy="90" r="12" fill="#f59e0b"/>
    <path d="M42 83.6v.2m0 12.4v.2" stroke="#ffffff" stroke-width="5.5" stroke-linecap="round"/>
    <rect x="68" y="38" width="44" height="8" rx="4" fill="#cbd5e1"/>
    <rect x="68" y="62" width="50" height="8" rx="4" fill="#cbd5e1"/>
    <rect x="68" y="86" width="44" height="8" rx="4" fill="#cbd5e1"/>
  </g>
  <g transform="translate(192 56)">
    <text x="0" y="48" fill="#0f172a" font-family="Inter, ui-sans-serif, system-ui, -apple-system, Segoe UI, sans-serif" font-size="60" font-weight="800" letter-spacing="0">canvasjob</text>
    <rect x="5" y="65" width="142" height="7" rx="3.5" fill="#14b8a6"/>
  </g>
</svg>
